PathFileType	4	(X/Y/Z)	T00_JumpTrial_0-2667.trc
DataRate	CameraRate	NumFrames	NumMarkers	Units	OrigDataRate	OrigDataStartFrame	OrigNumFrames
30	30	18	21	m	30	333	2667
Frame#	Time	RHip			RKnee			RAnkle			RBigToe			RSmallToe			RHeel			LHip			LKnee			LAnkle			LBigToe			LSmallToe			LHeel			Neck			Head			Nose			RShoulder			RElbow			RWrist			LShoulder			LElbow			LWrist		
		X1	Y1	Z1	X2	Y2	Z2	X3	Y3	Z3	X4	Y4	Z4	X5	Y5	Z5	X6	Y6	Z6	X7	Y7	Z7	X8	Y8	Z8	X9	Y9	Z9	X10	Y10	Z10	X11	Y11	Z11	X12	Y12	Z12	X13	Y13	Z13	X14	Y14	Z14	X15	Y15	Z15	X16	Y16	Z16	X17	Y17	Z17	X18	Y18	Z18	X19	Y19	Z19	X20	Y20	Z20	X21	Y21	Z21
334	11.133333333333333	-9.332662326494622	1.6680797705764416	1.5762746814390494	-3.676649023878286	2.227489755757861	1.540584740975129	-4.522465820406298	-1.1912848207792135	0.7892541636490946	-4.231960533582489	2.874425547319261	0.725108266280363	-4.257528996778192	2.781776973390622	0.6573203569759143	-3.958082428371808	2.483848282956411	1.017081114654617	-3.9170022702544345	2.3480527512656533	0.9149066530300692	-4.478844073845994	1.5896646296719756	1.620966504994532	-4.364498332313549	-1.173720513184532	0.6583259676602621	-3.859149877708231	2.642024772914716	1.5828014065632834	-3.90974631123732	2.634060803244661	1.7124765210456154	-3.948810572701453	2.487831675719898	1.5076524844856425				-5.0322204255332705	-1.1769420281158451	0.947270607153516	-4.895733268185657	-1.0268837121088572	0.7208135001762188	-6.413314932953057	-1.200496460521575	1.9936533192798331	-3.681100747504988	0.35528241778279546	1.3292799749899031	-4.313307534879215	1.5829676989610824	0.9540168187824069	-5.9682480861677645	-0.8163160411102135	1.3400651086545543	-5.3504033004013065	-1.5912197130662786	2.2975583526939993	-3.442123943686278	0.38932753079063875	1.1110930980159037
335	11.166666666666666	-11.763816831006412	2.227953539485727	1.5829833399146858	-3.6778149058237215	2.222481100663887	1.5412619029397787	-4.428370604261286	-1.2259971436311545	0.8286007580996144	-4.160600568867818	2.8245951444531663	0.8727181761452681	-4.256018522335134	2.7807704362540835	0.7882801067066912	-3.863152581686864	2.4133904434871813	1.112078293968466	-3.83850628832663	2.294083135893273	1.0108186558015302	-4.557504668141071	1.628895993627038	1.6332168209996656	-4.17962601827792	-1.218686845858676	0.7085695713750306	-3.859418876670925	2.6446828370321804	1.583396650626436	-3.954253411706799	2.6662409655547408	1.7143051351889105	-3.9739119222033215	2.4890495874022367	1.5124840080360864				-5.029183853181029	-1.196841831211101	0.980288721125127	-4.714415831823176	-1.0685642858325592	0.7555237139871127	-6.558902592944264	-1.2003355944924452	2.0115889126726714	-3.62875302011417	0.35114429763346616	1.3590677407482183	-4.22299614884352	1.5386075113222268	1.0132485071424795	-6.449823219232766	-0.7907664893075625	1.3652315898415308	-5.384828294752452	-1.5958658788115891	2.3241298087660485	-2.7568176732714553	0.2253806287933336	1.1543530730549736
336	11.2	-9.97346665072796	1.8048807915169292	1.594963617513507	-3.6809645374604094	2.21665377896827	1.5375559931953988	-4.729334582169175	-1.1810141794587696	0.8523696302456527	-4.084480214200366	2.7717593504408296	1.029586387592435	-4.255555542035031	2.7813587991245763	0.926694789575626	-3.76425116223992	2.3404343343053498	1.210928777844451	-3.759681690057421	2.2390233711661005	1.1110028915768586	-4.632978972898869	1.6660090201784044	1.642524057271804	-4.373482287824146	-1.1875772926279657	0.7311673003412504	-3.854603031643683	2.6447862398052058	1.5798191681370188	-4.001481137623535	2.699861516633878	1.7117656665607135	-4.000189383384607	2.487720324645163	1.5132199993114386				-5.061377489351412	-1.1816494020139043	1.0215064855759606	-4.608438617618953	-1.0661275082364678	0.7795164797282532	-6.087871877168912	-1.2219455566887334	2.037523807112287	-3.991056938479659	0.44832874638231307	1.3677227561254797	-4.12302868321946	1.4892982043121388	1.073411113845828	-6.294542937703611	-0.7840660207429802	1.4077109126227736	-5.1254127463816594	-1.592169965680547	2.350887081045498	-2.9869039729213425	0.2593940913198742	1.138243404879428
337	11.233333333333333	-4.2880976050246815	0.4795358374455926	1.613374228813191	-3.685403252187869	2.210631388833752	1.5321832910789506	-5.056964033886067	-1.129127507836087	0.8685827991755508	-4.007495110792243	2.7185255988144497	1.1876407934811577	-4.254972566263913	2.782389971110727	1.065870836550293	-3.6648777734605047	2.267564095971617	1.309559635098226	-3.681623028251933	2.184165352184294	1.211094127166456	-4.706269104180607	1.7016676704890503	1.6507567808092114	-4.668115549125677	-1.1441913287143992	0.7371122481656287	-3.8465046414142137	2.642957560173626	1.5743740335973486	-4.046851341415583	2.7320561137492443	1.707222173453098	-4.026734876779027	2.485316595687989	1.5124066887934384				-5.058615254903007	-1.1677510873642767	1.0572107156050006	-4.530551509717707	-1.0606638004344298	0.8055953196880041	-5.8150043320721245	-1.2185846030231198	2.0935075391824425	-4.5696504699168194	0.5981687639474098	1.3661145036991806	-4.018289510885979	1.4376895152954787	1.1327294410717843	-5.803039777976231	-0.8044878150288002	1.4473295260128223	-5.038608875682227	-1.5742163552995305	2.4013562284662147	-4.277284689318197	0.5194896409485241	1.0742657691203517
338	11.266666666666667							-4.991559872744575	-1.1562856787961	0.8937059736332398																-4.693361158692894	-1.1673510049435785	0.7522196232220547													-4.962541760287456	-1.1928587999359308	1.0794655790636833	-4.424884485726485	-1.0968594093333677	0.8455935081255829	-6.31969882127074	-1.1670060319066176	2.1638206829453708							-5.5450455030368255	-0.8378600786646325	1.460793523908974	-5.424348645751414	-1.5511134835869969	2.4666458630490253	-6.369591615834364	0.9531373977998745	0.9862156988861692
339	11.3							-4.71011005743444	-1.2221651191217782	0.9202478074031661																-4.513955206860209	-1.226341993040066	0.7763020907866763													-4.861380845914434	-1.229933680374502	1.0905628815126782	-4.4558860006862595	-1.1353887083825767	0.8827648390146197	-7.014762263798089	-1.1032683053544203	2.209616731154631							-5.543400927244613	-0.8621841241224328	1.4575566496866692	-5.931453643185713	-1.5340358671931527	2.525199743417729	-8.599820856030403	1.426238330605037	0.9075789400830208
340	11.333333333333334							-4.541452610767367	-1.256815294193328	0.9391738974694566																-4.3494700944079225	-1.2622028604694284	0.8015902995630988													-4.853890939169843	-1.2433182552876656	1.1002928781985117	-4.612039750540593	-1.1404519213010396	0.9032052795811861	-7.321106366291542	-1.0660647411421638	2.229899848413919							-5.65595032520811	-0.8623644934075794	1.466028325032012	-6.204006717205984	-1.5161415710967896	2.582240421013501	-10.302097517510436	1.803079313643322	0.8652601571521893
341	11.366666666666667							-4.516942858620936	-1.2575965318803433	0.96090847523179																-4.291861421810702	-1.2680299741281236	0.8311079239855835													-4.938689323394105	-1.2359169361565971	1.1209853130890732	-4.696162497299168	-1.1290477144541406	0.9143769197006271	-7.35317405252931	-1.0525984284964125	2.255768432128914							-5.937527348460102	-0.8313101217055904	1.4989675688409112	-6.3141215046470265	-1.4765429331853674	2.650293976433627	-11.217735308514433	2.0280016466993542	0.8643351424156109
342	11.4							-4.568547092955566	-1.2474079151541375	0.995857662501911																-4.363843606161646	-1.2580269168131242	0.8647791876496789													-5.02642731738803	-1.22629881714902	1.158404499694984	-4.674074398914838	-1.1207042251653454	0.9284276818547983	-7.361755675333891	-1.0332868343302781	2.302685315728986							-6.346227242447281	-0.7743811117405596	1.5443947201499404	-6.4271368732195295	-1.4116267601054917	2.7204488865697405	-11.50399334892485	2.127600803781738	0.8896588798167693
343	11.433333333333334							-4.655395336504288	-1.239156053219464	1.037617075046403																-4.509861181400215	-1.2440907028917554	0.8949430995331809													-5.019148041661921	-1.225838232503532	1.203324606342005	-4.64419666003292	-1.1203880773260115	0.9540997330551402	-7.51406639289179	-0.978758708082267	2.3722208303858916							-6.673621541891027	-0.7151912270905553	1.5841931541546612	-6.607632676293079	-1.3435424049035753	2.7899061938808414	-11.474681277329276	2.159331066244343	0.9192670268861047
344	11.466666666666669							-4.726379407215562	-1.2388128052857874	1.072123291145181																-4.621513117379677	-1.2367837507781758	0.9175855338190206													-4.958025798581033	-1.2310560050056991	1.240045318784375	-4.646505378068972	-1.1331334872022856	0.9935133958200315	-7.800397098274865	-0.896051349009743	2.4512582838053434							-6.7554315324708485	-0.6851112884779833	1.6116333164921153	-6.849357517016597	-1.2875507767678296	2.8743992550610904	-11.377190795650387	2.167315303279235	0.9379803318014202
345	11.5							-4.776205766551778	-1.243669611528509	1.0968085130842653																-4.643151178529209	-1.240587332736101	0.9408033045699866													-5.015535055941098	-1.2277607909580779	1.2672699494793078	-4.663792209610568	-1.1603148108566712	1.0366811592291638	-7.895820805050507	-0.835573639702623	2.500140344017537							-6.571230183146191	-0.6995974119381605	1.6309114790002168	-7.095683312054501	-1.2302915512224124	2.9761100920462153	-11.300114739889208	2.1648614391728094	0.9451373071906062
346	11.533333333333331							-4.827308597635806	-1.247290058637151	1.1258139946676686																-4.592067597908534	-1.25287976653701	0.9784506811609808													-5.229582941096244	-1.2124440433099608	1.299947335955719	-4.684537482688354	-1.1914236234452136	1.07240026258404	-7.603759541007192	-0.8249853657572678	2.5006139422297324							-6.307106958453624	-0.7377466407634602	1.6533865718917253	-7.323170787032616	-1.152665261556979	3.080234855134204	-11.205910667691718	2.1426686019857586	0.9512073854140319
347	11.566666666666666							-4.834005034924374	-1.250617808307381	1.169098124037727																-4.55622155597653	-1.2634917514819985	1.0285753456565747													-5.36627023228761	-1.2031727554733394	1.3450120619589103	-4.694584721563934	-1.2138408071610802	1.1034004943346916	-7.152543379611817	-0.8265914033143898	2.491937509559329							-6.268998449432317	-0.7532780316646315	1.6917506958132575	-7.426846785751939	-1.0571290951950754	3.1637470342412084	-11.03806184029876	2.091142071698336	0.9662411578894761
348	11.6							-4.746693186822897	-1.2594584568453635	1.2169047211527666																-4.593548277295911	-1.2653680119251105	1.0743074709101517													-5.256527632422942	-1.2144548198550447	1.3911079728513647	-4.661492589858346	-1.228568070850787	1.141361507573647	-6.903043942183027	-0.7863522873190987	2.525125946891502							-6.524497274564577	-0.7254110041573754	1.7442672541283548	-7.264608275956682	-0.956804308491087	3.210354570017348	-10.790412528720388	2.0132879712825513	0.9930459935000865
349	11.633333333333333							-4.650515339706243	-1.2713685398762127	1.2595631696474623																-4.641565997381177	-1.2658664055534647	1.1129489849053686													-5.133883690244344	-1.2287873502692432	1.4324806113155941	-4.610867538917231	-1.2405601857026811	1.1883670873532355	-6.974822702368138	-0.7043329391757388	2.6003200049730344							-6.768239470907829	-0.6867294985093922	1.7931132507415515	-7.064489800729946	-0.8500292765541296	3.2580507106874728	-10.497158479948798	1.9210501162077636	1.0294693418629952
350	11.666666666666666							-4.66698896444446	-1.2766995155847787	1.3043811839765493																-4.659405005873795	-1.2719239959830468	1.1568630660600996													-5.2516353554904835	-1.2235151505130908	1.4795711461106085	-4.639431446160621	-1.2439514858739027	1.2343243349037225	-7.237971835413062	-0.6174637113396287	2.683791306826447							-6.7439206168842745	-0.6753879057003459	1.8301076431806327	-7.305909321356256	-0.7150489864903904	3.3863710570838705	-10.201346222643561	1.828204902986214	1.072588333150259
351	11.7	-11.252036913865972	2.0663873225966665	1.979910298264903				-4.768092783441805	-1.273575904495891	1.3566111026518315																-4.692412018436761	-1.278047214989403	1.2055989164963048										-4.813050605524989	-1.4181807646280018	1.078560060783022	-5.410186480286095	-1.2116297686725748	1.5339639070735527	-4.757826029160916	-1.235810136364275	1.275347629198185	-7.734078691043376	-0.5134640855893768	2.78358895164226							-6.631832830773062	-0.6780297600004273	1.8713144566958668	-8.311423633746905	-0.5107595731176509	3.658836470763418	-9.941792020402964	1.7475930058571942	1.120163829603392
